HIERARCHY
ROOT newVegas:Hips
{
	OFFSET 0.000000 96.479958 0.000000
	CHANNELS 6 Xposition Yposition Zposition Xrotation Yrotation Zrotation
	JOINT newVegas:Pelvis
	{
		OFFSET 0.000000 0.000000 0.000000
		CHANNELS 3 Xrotation Yrotation Zrotation
		JOINT newVegas:LeftUpLeg
		{
			OFFSET 18.735201 -5.666702 -4.541200
			CHANNELS 3 Xrotation Yrotation Zrotation
			JOINT newVegas:LeftLeg
			{
				OFFSET -0.021200 -31.938179 0.493100
				CHANNELS 3 Xrotation Yrotation Zrotation
				JOINT newVegas:LeftFoot
				{
					OFFSET 0.021200 -31.938179 -4.336299
					CHANNELS 3 Xrotation Yrotation Zrotation
					JOINT newVegas:LeftToeBase
					{
						OFFSET 0.943001 -26.722000 15.023500
						CHANNELS 3 Xrotation Yrotation Zrotation
						End Site
						{
							OFFSET 0.000000 30.670183 0.000000
						}
					}
				}
				JOINT newVegas:Left_PantLeg
				{
					OFFSET 0.663870 -9.044666 -1.108900
					CHANNELS 3 Xrotation Yrotation Zrotation
					End Site
					{
						OFFSET 1.415995 20.635357 0.000000
					}
				}
			}
		}
		JOINT newVegas:RightUpLeg
		{
			OFFSET -18.735201 -5.666702 -4.541200
			CHANNELS 3 Xrotation Yrotation Zrotation
			JOINT newVegas:RightLeg
			{
				OFFSET 0.018946 -31.938133 0.493100
				CHANNELS 3 Xrotation Yrotation Zrotation
				JOINT newVegas:RightFoot
				{
					OFFSET -0.018946 -31.938126 -4.336299
					CHANNELS 3 Xrotation Yrotation Zrotation
					JOINT newVegas:RightToeBase
					{
						OFFSET -0.943001 -26.722004 15.023500
						CHANNELS 3 Xrotation Yrotation Zrotation
						End Site
						{
							OFFSET 0.000000 30.670187 0.000000
						}
					}
				}
				JOINT newVegas:Right_PantLeg
				{
					OFFSET -0.661674 -9.044716 -1.108900
					CHANNELS 3 Xrotation Yrotation Zrotation
					End Site
					{
						OFFSET -1.415958 20.635269 0.000000
					}
				}
			}
		}
	}
	JOINT newVegas:Spine
	{
		OFFSET 0.000000 10.199997 -0.299500
		CHANNELS 3 Xrotation Yrotation Zrotation
		JOINT newVegas:Spine1
		{
			OFFSET 0.000000 11.900002 -1.516600
			CHANNELS 3 Xrotation Yrotation Zrotation
			JOINT newVegas:Spine2
			{
				OFFSET 0.000000 13.600006 -2.842500
				CHANNELS 3 Xrotation Yrotation Zrotation
				JOINT newVegas:Neck
				{
					OFFSET 0.000000 9.624100 -2.890100
					CHANNELS 3 Xrotation Yrotation Zrotation
					JOINT newVegas:Head
					{
						OFFSET 0.000000 14.068802 -1.351900
						CHANNELS 3 Xrotation Yrotation Zrotation
						JOINT newVegas:Hair_Back
						{
							OFFSET 0.000000 3.231903 -17.524799
							CHANNELS 3 Xrotation Yrotation Zrotation
							End Site
							{
								OFFSET 0.000000 19.849884 0.000000
							}
						}
						JOINT newVegas:Hair_Front
						{
							OFFSET 0.000000 31.260406 4.573800
							CHANNELS 3 Xrotation Yrotation Zrotation
							JOINT newVegas:Hair_Front1
							{
								OFFSET 0.000000 2.284103 11.993300
								CHANNELS 3 Xrotation Yrotation Zrotation
								JOINT newVegas:Hair_Front2
								{
									OFFSET 0.000000 2.284103 11.993300
									CHANNELS 3 Xrotation Yrotation Zrotation
									End Site
									{
										OFFSET 0.000000 12.208862 0.000000
									}
								}
							}
						}
						JOINT newVegas:Jowel
						{
							OFFSET 0.000000 -7.458206 6.864100
							CHANNELS 3 Xrotation Yrotation Zrotation
							End Site
							{
								OFFSET 0.000000 19.849884 0.000000
							}
						}
					}
				}
				JOINT newVegas:LeftShoulder
				{
					OFFSET 15.263000 10.923401 -0.547700
					CHANNELS 3 Xrotation Yrotation Zrotation
					JOINT newVegas:LeftArm
					{
						OFFSET 25.438599 -2.830597 -13.032500
						CHANNELS 3 Xrotation Yrotation Zrotation
						JOINT newVegas:LeftForeArm
						{
							OFFSET 29.960503 0.000000 0.000000
							CHANNELS 3 Xrotation Yrotation Zrotation
							JOINT newVegas:LeftHand
							{
								OFFSET 27.849251 0.000000 0.000000
								CHANNELS 3 Xrotation Yrotation Zrotation
								JOINT newVegas:LeftHandThumb1
								{
									OFFSET 4.487587 -3.305161 6.305391
									CHANNELS 3 Xrotation Yrotation Zrotation
									JOINT newVegas:LeftHandThumb2
									{
										OFFSET 5.480453 -3.164139 3.164143
										CHANNELS 3 Xrotation Yrotation Zrotation
										JOINT newVegas:LeftHandThumb3
										{
											OFFSET 5.159721 -2.978973 2.978967
											CHANNELS 3 Xrotation Yrotation Zrotation
											End Site
											{
												OFFSET 2.494507 5.926697 1.738678
											}
										}
									}
								}
								JOINT newVegas:LeftHandIndex1
								{
									OFFSET 18.578728 -0.527832 5.208049
									CHANNELS 3 Xrotation Yrotation Zrotation
									JOINT newVegas:LeftHandIndex2
									{
										OFFSET 3.192009 0.000000 0.000000
										CHANNELS 3 Xrotation Yrotation Zrotation
										JOINT newVegas:LeftHandIndex3
										{
											OFFSET 3.835129 0.000000 0.000000
											CHANNELS 3 Xrotation Yrotation Zrotation
											End Site
											{
												OFFSET -0.034599 3.816971 0.371180
											}
										}
									}
								}
								JOINT newVegas:LeftHandMiddle1
								{
									OFFSET 18.476105 0.000000 0.000000
									CHANNELS 3 Xrotation Yrotation Zrotation
									JOINT newVegas:LeftHandMiddle2
									{
										OFFSET 3.324875 0.000000 0.000000
										CHANNELS 3 Xrotation Yrotation Zrotation
										JOINT newVegas:LeftHandMiddle3
										{
											OFFSET 4.596550 0.000000 0.000000
											CHANNELS 3 Xrotation Yrotation Zrotation
											End Site
											{
												OFFSET 0.057701 4.578827 0.399218
											}
										}
									}
								}
								JOINT newVegas:LeftHandRing1
								{
									OFFSET 17.732719 0.121887 -4.201567
									CHANNELS 3 Xrotation Yrotation Zrotation
									JOINT newVegas:LeftHandRing2
									{
										OFFSET 2.733170 0.000000 0.000000
										CHANNELS 3 Xrotation Yrotation Zrotation
										JOINT newVegas:LeftHandRing3
										{
											OFFSET 3.178268 0.000000 0.000000
											CHANNELS 3 Xrotation Yrotation Zrotation
											End Site
											{
												OFFSET 0.119102 3.170624 0.185394
											}
										}
									}
								}
								JOINT newVegas:LeftHandPinky1
								{
									OFFSET 15.989624 -0.606689 -7.535461
									CHANNELS 3 Xrotation Yrotation Zrotation
									JOINT newVegas:LeftHandPinky2
									{
										OFFSET 2.538986 0.000000 0.000000
										CHANNELS 3 Xrotation Yrotation Zrotation
										JOINT newVegas:LeftHandPinky3
										{
											OFFSET 2.593102 0.000000 0.000000
											CHANNELS 3 Xrotation Yrotation Zrotation
											End Site
											{
												OFFSET -0.150902 2.584198 0.152708
											}
										}
									}
								}
							}
							JOINT newVegas:Left_Sleeve
							{
								OFFSET 0.267448 -0.649796 0.577675
								CHANNELS 3 Xrotation Yrotation Zrotation
								End Site
								{
									OFFSET 0.000000 15.991241 0.000000
								}
							}
							JOINT newVegas:Left_CapeC
							{
								OFFSET 15.715958 -8.608795 -6.935905
								CHANNELS 3 Xrotation Yrotation Zrotation
								JOINT newVegas:Left_CapeC1
								{
									OFFSET 0.000000 -8.688499 0.000000
									CHANNELS 3 Xrotation Yrotation Zrotation
									End Site
									{
										OFFSET 0.000000 8.688499 0.000000
									}
								}
							}
						}
						JOINT newVegas:Left_CapeB
						{
							OFFSET 26.118385 -8.608795 -7.079235
							CHANNELS 3 Xrotation Yrotation Zrotation
							JOINT newVegas:Left_CapeB1
							{
								OFFSET 0.000000 -8.688499 0.000000
								CHANNELS 3 Xrotation Yrotation Zrotation
								End Site
								{
									OFFSET 0.000000 8.688499 0.000000
								}
							}
						}
						JOINT newVegas:Left_CapeA
						{
							OFFSET 5.115639 -8.608795 -10.395809
							CHANNELS 3 Xrotation Yrotation Zrotation
							JOINT newVegas:Left_CapeA1
							{
								OFFSET 0.000000 -8.688499 0.000000
								CHANNELS 3 Xrotation Yrotation Zrotation
								End Site
								{
									OFFSET 0.000000 8.688499 0.000000
								}
							}
						}
					}
				}
				JOINT newVegas:RightShoulder
				{
					OFFSET -15.263000 10.923401 -0.547700
					CHANNELS 3 Xrotation Yrotation Zrotation
					JOINT newVegas:RightArm
					{
						OFFSET -25.438599 -2.830597 -13.032500
						CHANNELS 3 Xrotation Yrotation Zrotation
						JOINT newVegas:RightForeArm
						{
							OFFSET -29.960503 0.000000 0.000000
							CHANNELS 3 Xrotation Yrotation Zrotation
							JOINT newVegas:RightHand
							{
								OFFSET -27.849251 0.000000 0.000000
								CHANNELS 3 Xrotation Yrotation Zrotation
								JOINT newVegas:RightHandThumb1
								{
									OFFSET -4.487587 -3.305161 6.305391
									CHANNELS 3 Xrotation Yrotation Zrotation
									JOINT newVegas:RightHandThumb2
									{
										OFFSET -5.480453 -3.164139 3.164143
										CHANNELS 3 Xrotation Yrotation Zrotation
										JOINT newVegas:RightHandThumb3
										{
											OFFSET -5.159721 -2.978973 2.978967
											CHANNELS 3 Xrotation Yrotation Zrotation
											End Site
											{
												OFFSET -2.494507 5.926697 1.738678
											}
										}
									}
								}
								JOINT newVegas:RightHandIndex1
								{
									OFFSET -18.578728 -0.527832 5.208049
									CHANNELS 3 Xrotation Yrotation Zrotation
									JOINT newVegas:RightHandIndex2
									{
										OFFSET -3.192009 0.000000 0.000000
										CHANNELS 3 Xrotation Yrotation Zrotation
										JOINT newVegas:RightHandIndex3
										{
											OFFSET -3.835129 0.000000 0.000000
											CHANNELS 3 Xrotation Yrotation Zrotation
											End Site
											{
												OFFSET 0.034599 3.816971 0.371180
											}
										}
									}
								}
								JOINT newVegas:RightHandMiddle1
								{
									OFFSET -18.476105 0.000000 0.000000
									CHANNELS 3 Xrotation Yrotation Zrotation
									JOINT newVegas:RightHandMiddle2
									{
										OFFSET -3.324875 0.000000 0.000000
										CHANNELS 3 Xrotation Yrotation Zrotation
										JOINT newVegas:RightHandMiddle3
										{
											OFFSET -4.596550 0.000000 0.000000
											CHANNELS 3 Xrotation Yrotation Zrotation
											End Site
											{
												OFFSET -0.057701 4.578827 0.399218
											}
										}
									}
								}
								JOINT newVegas:RightHandRing1
								{
									OFFSET -17.732719 0.121887 -4.201567
									CHANNELS 3 Xrotation Yrotation Zrotation
									JOINT newVegas:RightHandRing2
									{
										OFFSET -2.733170 0.000000 0.000000
										CHANNELS 3 Xrotation Yrotation Zrotation
										JOINT newVegas:RightHandRing3
										{
											OFFSET -3.178268 0.000000 0.000000
											CHANNELS 3 Xrotation Yrotation Zrotation
											End Site
											{
												OFFSET -0.119102 3.170624 0.185394
											}
										}
									}
								}
								JOINT newVegas:RightHandPinky1
								{
									OFFSET -15.989624 -0.606689 -7.535461
									CHANNELS 3 Xrotation Yrotation Zrotation
									JOINT newVegas:RightHandPinky2
									{
										OFFSET -2.538986 0.000000 0.000000
										CHANNELS 3 Xrotation Yrotation Zrotation
										JOINT newVegas:RightHandPinky3
										{
											OFFSET -2.593102 0.000000 0.000000
											CHANNELS 3 Xrotation Yrotation Zrotation
											End Site
											{
												OFFSET 0.150902 2.584198 0.152708
											}
										}
									}
								}
							}
							JOINT newVegas:Right_CapeC
							{
								OFFSET -15.715958 -8.608795 -6.935905
								CHANNELS 3 Xrotation Yrotation Zrotation
								JOINT newVegas:Right_CapeC1
								{
									OFFSET 0.000000 -8.688499 0.000000
									CHANNELS 3 Xrotation Yrotation Zrotation
									End Site
									{
										OFFSET 0.000000 8.688499 0.000000
									}
								}
							}
							JOINT newVegas:Right_Sleeve
							{
								OFFSET -0.267448 -0.649994 0.577675
								CHANNELS 3 Xrotation Yrotation Zrotation
								End Site
								{
									OFFSET 0.000000 15.991302 0.000000
								}
							}
						}
						JOINT newVegas:Right_CapeA
						{
							OFFSET -5.115540 -8.608795 -10.395824
							CHANNELS 3 Xrotation Yrotation Zrotation
							JOINT newVegas:Right_CapeA1
							{
								OFFSET 0.000000 -8.688499 0.000000
								CHANNELS 3 Xrotation Yrotation Zrotation
								End Site
								{
									OFFSET 0.000000 8.688499 0.000000
								}
							}
						}
						JOINT newVegas:Right_CapeB
						{
							OFFSET -26.118187 -8.608795 -7.079266
							CHANNELS 3 Xrotation Yrotation Zrotation
							JOINT newVegas:Right_CapeB1
							{
								OFFSET 0.000000 -8.688499 0.000000
								CHANNELS 3 Xrotation Yrotation Zrotation
								End Site
								{
									OFFSET 0.000000 8.688499 0.000000
								}
							}
						}
					}
				}
				JOINT newVegas:Left_Collar
				{
					OFFSET 18.625099 8.655502 8.828100
					CHANNELS 3 Xrotation Yrotation Zrotation
					JOINT newVegas:Left_Collar1
					{
						OFFSET 14.783401 10.540405 -1.259500
						CHANNELS 3 Xrotation Yrotation Zrotation
						End Site
						{
							OFFSET 0.000000 18.199875 0.000000
						}
					}
				}
				JOINT newVegas:Collar_Back
				{
					OFFSET 0.000000 15.630707 -20.132601
					CHANNELS 3 Xrotation Yrotation Zrotation
					End Site
					{
						OFFSET 0.000000 22.523010 0.000000
					}
				}
				JOINT newVegas:Left_Peck
				{
					OFFSET 17.239599 -5.132599 25.482599
					CHANNELS 3 Xrotation Yrotation Zrotation
					End Site
					{
						OFFSET 0.000000 22.523010 0.000000
					}
				}
				JOINT newVegas:Right_Peck
				{
					OFFSET -17.239599 -5.132202 25.482599
					CHANNELS 3 Xrotation Yrotation Zrotation
					End Site
					{
						OFFSET 0.000000 22.523010 0.000000
					}
				}
				JOINT newVegas:Right_Collar
				{
					OFFSET -18.625099 8.655792 8.828100
					CHANNELS 3 Xrotation Yrotation Zrotation
					JOINT newVegas:Right_Collar1
					{
						OFFSET -14.783401 10.539993 -1.259500
						CHANNELS 3 Xrotation Yrotation Zrotation
						End Site
						{
							OFFSET 0.000000 18.199631 0.000000
						}
					}
				}
			}
		}
		JOINT newVegas:Belly
		{
			OFFSET 0.000000 -6.540398 9.014299
			CHANNELS 3 Xrotation Yrotation Zrotation
			End Site
			{
				OFFSET 0.000000 11.566666 0.000000
			}
		}
	}
	JOINT newVegas:ElvisFacialAnim_Joint
	{
		OFFSET 1.000000 -95.330101 -8.825800
		CHANNELS 3 Xrotation Yrotation Zrotation
		End Site
		{
			OFFSET 0.000000 35.315800 0.000000
		}
	}
}
MOTION
Frames: 4
Frame Time: 0.033333
-3.526497 78.410347 3.057351 11.660455 -49.374423 11.268416 -0.000001 0.000001 -0.000000 -69.006958 20.606660 47.788143 51.256677 -22.124352 3.397199 2.960897 1.488325 -15.125341 -0.000000 0.000002 -0.000000 -0.000000 -0.000000 0.000002 -33.116100 3.851185 -30.939855 58.819137 4.953797 -6.674889 -30.772775 -6.442879 30.151993 -0.000000 0.000000 0.000000 0.000001 0.000003 -0.000003 10.972491 2.720446 -2.032873 6.100706 5.566523 -4.284675 -5.786914 6.328149 -3.046186 0.458801 1.873415 -0.022561 0.458784 1.873404 -0.022559 -0.000000 -0.000000 0.000001 0.458857 1.873413 -0.022562 0.458724 1.873419 -0.022560 -0.000003 0.000001 -0.000001 -0.000000 -0.000000 0.000001 -1.875346 -16.181761 -2.870478 -10.644652 2.164791 -45.510613 -22.862395 -25.786276 -15.871707 2.491059 -2.511891 6.860467 18.457961 -9.513778 13.216591 -1.150176 11.255289 -8.400821 0.000002 -0.000003 0.000002 -1.232774 -5.771948 -0.192348 0.133948 -0.197655 -4.602103 -0.000004 0.000003 -0.000002 1.884758 4.663336 -4.597418 0.476683 -1.009847 -12.986424 0.000002 -0.000001 0.000003 3.024621 7.938921 -14.103470 -0.708030 -0.566240 -18.895764 -0.000004 0.000003 0.000001 2.010384 6.305960 -22.386534 -0.815378 -0.210788 -16.746504 -0.000002 -0.000003 0.000002 -0.000001 -0.000002 0.000002 -0.000001 -0.000002 0.000002 -0.000002 -0.000002 0.000002 -0.000001 0.000001 -0.000003 -0.000000 0.000001 -0.000005 -0.000001 0.000001 -0.000003 -0.000002 0.000002 -0.000004 -5.074697 24.344196 1.482818 6.642416 -34.734227 57.610439 -21.032003 44.833881 19.961709 -0.087161 35.608512 7.474241 55.149505 18.649563 -29.698301 -0.442551 -14.180554 7.313170 -0.000000 0.000001 0.000001 5.673398 7.585009 36.844137 1.050454 3.824506 68.900271 -0.000001 -0.000001 -0.000001 -0.125724 1.886092 45.000749 -1.169038 3.204678 68.417663 0.000002 0.000001 0.000000 -5.312034 1.216669 58.508828 -0.745211 1.667618 48.011268 0.000000 0.000001 -0.000001 -7.756829 -9.376456 47.264007 -0.526052 1.541599 45.600563 0.000006 -0.000000 0.000001 0.000001 -0.000001 0.000002 0.000003 -0.000001 0.000002 0.000001 -0.000001 0.000001 0.000000 -0.000001 0.000002 0.000000 -0.000001 0.000001 0.000000 -0.000001 0.000002 0.000000 -0.000001 0.000001 0.000000 -0.000000 -0.000000 0.000000 -0.000000 -0.000000 0.000000 -0.000000 -0.000000 0.000000 -0.000000 -0.000000 0.000000 -0.000000 -0.000000 0.000000 -0.000000 -0.000000 0.000000 -0.000000 -0.000000 -0.000000 0.000000 0.000000 -0.000001 0.000001 -0.000000 
-3.381706 78.330887 3.249681 10.374039 -49.454360 10.004317 -0.000000 0.000003 -0.000000 -68.896951 20.168924 48.017398 52.631536 -23.195538 3.630461 2.381258 2.408879 -14.762102 -0.000000 -0.000000 0.000000 0.000000 -0.000001 0.000001 -32.160598 3.512405 -31.066296 58.556844 4.540795 -6.723654 -30.721481 -5.931823 30.681599 -0.000000 0.000000 0.000000 0.000001 0.000002 0.000000 11.334317 2.468733 -2.263643 6.143824 5.099424 -3.630670 -5.697011 5.823231 -2.430058 0.629090 1.985387 0.451124 0.629137 1.985393 0.451082 -0.000000 0.000003 -0.000000 0.629035 1.985302 0.451142 0.629125 1.985485 0.451105 -0.000002 -0.000001 0.000001 -0.000000 0.000003 -0.000001 -1.875288 -16.970348 -2.550679 -9.536641 3.283105 -46.561683 -22.928503 -27.231848 -16.718780 1.784346 -1.643056 8.152647 18.625694 -9.266028 13.236463 -0.948313 11.498039 -8.405992 0.000002 -0.000003 0.000000 -1.215698 -5.098289 -1.357650 0.127519 -0.278653 -6.408793 0.000000 0.000001 -0.000001 1.889754 4.747243 -6.426951 0.443934 -1.097053 -14.789091 -0.000000 -0.000001 0.000000 3.010372 7.744735 -15.672243 -0.728879 -0.648108 -20.481804 0.000002 0.000001 0.000002 1.987265 6.173011 -23.730611 -0.830919 -0.287602 -18.101113 -0.000000 -0.000003 0.000000 0.000006 0.000001 0.000001 0.000006 0.000001 0.000001 0.000005 0.000001 0.000001 0.000001 0.000000 0.000003 0.000002 0.000001 0.000000 0.000001 0.000000 0.000003 0.000000 -0.000000 0.000004 -5.193301 24.094826 2.103443 4.028045 -35.643930 55.054528 -21.972145 45.075796 21.371168 -0.525034 33.725739 6.517357 55.149505 18.649560 -29.698305 -0.442553 -14.180555 7.313169 -0.000000 -0.000003 0.000001 5.673398 7.585006 36.844134 1.050456 3.824509 68.900271 -0.000000 0.000000 0.000002 -0.125722 1.886090 45.000746 -1.169040 3.204681 68.417663 0.000001 0.000001 -0.000001 -5.312034 1.216668 58.508821 -0.745210 1.667615 48.011261 0.000002 0.000001 0.000002 -7.756826 -9.376460 47.264007 -0.526052 1.541604 45.600556 -0.000001 0.000003 -0.000003 0.000003 -0.000004 0.000003 0.000004 -0.000002 0.000004 0.000003 -0.000004 0.000002 0.000000 0.000001 0.000001 0.000001 0.000001 -0.000000 0.000000 0.000001 0.000001 0.000001 0.000001 -0.000000 0.000002 0.000001 0.000000 0.000002 0.000001 0.000000 0.000002 0.000001 0.000000 0.000002 0.000001 0.000000 0.000002 0.000001 0.000000 0.000002 0.000001 0.000000 0.000002 0.000001 0.000000 -0.000000 -0.000001 -0.000001 -0.000000 0.000003 -0.000000 
-3.218694 78.170952 3.453853 8.698414 -48.687972 8.316162 0.000000 -0.000001 -0.000000 -69.135550 19.521031 47.719571 54.189461 -24.824459 4.084788 2.141329 3.463252 -14.171475 0.000000 0.000000 -0.000000 0.000001 -0.000002 0.000001 -30.520318 2.741571 -31.376004 58.403780 3.772106 -6.588184 -31.059220 -5.651853 31.311469 -0.000000 0.000003 0.000000 0.000002 -0.000002 -0.000001 12.056136 1.921831 -2.903310 6.169531 4.225732 -2.404511 -5.556925 4.894654 -1.268770 0.625263 2.320941 1.042856 0.625260 2.320941 1.042854 0.000001 -0.000002 0.000001 0.625258 2.320899 1.042870 0.625256 2.320950 1.042853 -0.000000 0.000001 -0.000000 0.000001 -0.000002 0.000000 -1.907576 -18.251946 -2.731340 -8.199487 4.834617 -47.518801 -22.600869 -29.142624 -17.459178 0.605345 -0.604675 9.988518 19.050431 -8.642375 13.281823 -0.440604 12.111075 -8.427174 0.000002 0.000001 -0.000001 -1.049828 -3.416262 -4.299955 0.096295 -0.486158 -10.965150 -0.000000 -0.000001 0.000004 1.946399 4.976241 -11.041061 0.351915 -1.312316 -19.335984 -0.000004 0.000000 -0.000001 2.946514 7.285653 -19.630220 -0.791845 -0.851391 -24.482291 -0.000002 0.000001 -0.000002 1.912659 5.858392 -27.121650 -0.874490 -0.474439 -21.517831 0.000006 -0.000003 -0.000001 0.000002 -0.000001 0.000001 0.000002 -0.000001 0.000001 0.000001 -0.000001 0.000001 0.000001 -0.000003 -0.000001 0.000001 -0.000003 -0.000004 0.000001 -0.000003 -0.000001 0.000000 -0.000003 -0.000000 -5.144663 23.065508 2.797931 -0.477377 -34.653197 51.276426 -23.183737 44.703031 23.280691 -1.045311 31.946485 5.745167 55.149512 18.649563 -29.698298 -0.442552 -14.180556 7.313166 -0.000003 -0.000004 0.000001 5.673401 7.585006 36.844137 1.050454 3.824503 68.900278 -0.000000 0.000001 -0.000002 -0.125721 1.886088 45.000749 -1.169037 3.204682 68.417663 0.000001 -0.000001 0.000004 -5.312035 1.216667 58.508828 -0.745210 1.667617 48.011261 -0.000000 0.000001 -0.000002 -7.756831 -9.376464 47.264004 -0.526055 1.541597 45.600559 0.000003 0.000003 -0.000002 0.000000 0.000000 0.000000 0.000002 -0.000002 0.000002 0.000000 -0.000000 -0.000001 -0.000002 0.000002 0.000003 -0.000001 0.000003 0.000003 -0.000002 0.000002 0.000003 -0.000001 0.000003 0.000005 -0.000002 0.000002 -0.000001 -0.000002 0.000002 -0.000001 -0.000002 0.000002 -0.000001 -0.000002 0.000002 -0.000001 -0.000002 0.000002 -0.000001 -0.000002 0.000002 -0.000001 -0.000002 0.000002 -0.000001 -0.000001 0.000001 -0.000000 0.000000 -0.000001 -0.000000 
-3.211864 77.873741 3.655582 6.949999 -45.540030 6.002938 -0.000000 -0.000001 0.000000 -70.818168 18.282016 46.347563 55.763741 -28.012358 4.956915 3.122792 4.605778 -13.145511 0.000000 0.000000 -0.000000 0.000000 -0.000001 -0.000000 -27.255325 0.370163 -31.531517 58.050925 1.781353 -5.989198 -32.304100 -5.900752 32.147723 -0.000000 0.000000 0.000000 0.000002 0.000000 0.000001 11.746291 0.977642 -4.078945 6.770977 2.704904 -0.204405 -4.728811 3.259349 0.706820 0.635488 2.285930 1.603362 0.635490 2.285948 1.603361 0.000001 -0.000003 -0.000000 0.635635 2.285955 1.603350 0.635344 2.285959 1.603355 -0.000001 0.000001 -0.000002 0.000001 -0.000003 0.000000 -1.963881 -19.570787 -3.105776 -7.106712 6.182355 -48.247319 -22.449136 -31.645390 -18.419634 -0.799058 1.008568 12.261831 19.515391 -7.965358 13.320580 0.112852 12.778842 -8.459671 -0.000001 -0.000000 -0.000008 -0.671758 -1.624940 -7.516634 0.043000 -0.708793 -15.927229 -0.000004 0.000001 0.000000 2.083498 5.245558 -16.066034 0.236936 -1.538325 -24.288351 0.000003 -0.000000 -0.000000 2.837226 6.838472 -23.943805 -0.879620 -1.066066 -28.839282 -0.000001 -0.000001 -0.000000 1.808156 5.550715 -30.816803 -0.937871 -0.672584 -25.239000 0.000000 0.000000 -0.000003 -0.000001 0.000000 -0.000000 -0.000001 0.000000 -0.000000 -0.000002 0.000000 0.000000 -0.000002 0.000001 -0.000000 -0.000001 0.000000 -0.000001 -0.000002 0.000001 -0.000000 -0.000002 0.000001 0.000001 -4.825518 20.861134 3.268791 -5.369337 -31.997152 47.329430 -23.526723 42.521046 23.829606 -1.359706 31.359007 5.042094 55.149509 18.649563 -29.698301 -0.442550 -14.180559 7.313167 0.000003 -0.000004 0.000001 5.673400 7.585004 36.844141 1.050454 3.824503 68.900271 -0.000002 0.000004 0.000000 -0.125723 1.886091 45.000749 -1.169039 3.204678 68.417663 0.000002 -0.000000 -0.000001 -5.312036 1.216669 58.508828 -0.745209 1.667616 48.011264 0.000002 -0.000001 0.000003 -7.756830 -9.376461 47.264004 -0.526053 1.541597 45.600566 0.000002 0.000003 -0.000001 -0.000001 0.000000 -0.000001 0.000002 -0.000001 -0.000002 -0.000001 0.000000 -0.000001 -0.000000 0.000000 -0.000000 0.000000 0.000000 -0.000001 -0.000000 0.000000 -0.000000 0.000000 -0.000000 0.000001 0.000000 -0.000001 0.000000 0.000000 -0.000001 0.000000 0.000000 -0.000001 0.000000 0.000000 -0.000001 0.000000 0.000000 -0.000001 0.000000 0.000000 -0.000001 0.000000 0.000000 -0.000001 0.000000 0.000000 0.000001 0.000000 -0.000000 -0.000001 0.000000 
